<?xml version="1.0" standalone="no"?><!DOCTYPE svg PUBLIC "-//W3C//DTD SVG 1.1//EN" "http://www.w3.org/Graphics/SVG/1.1/DTD/svg11.dtd"><svg t="1649446444344" class="icon" viewBox="0 0 1024 1024" version="1.1" xmlns="http://www.w3.org/2000/svg" p-id="4161" xmlns:xlink="http://www.w3.org/1999/xlink" width="24" height="24"><defs><style type="text/css">@font-face { font-family: feedback-iconfont; src: url("//at.alicdn.com/t/font_1031158_u69w8yhxdu.woff2?t=1630033759944") format("woff2"), url("//at.alicdn.com/t/font_1031158_u69w8yhxdu.woff?t=1630033759944") format("woff"), url("//at.alicdn.com/t/font_1031158_u69w8yhxdu.ttf?t=1630033759944") format("truetype"); }
</style></defs><path d="M528.848153 647.252391a323.626196 323.626196 0 1 1 323.626196-323.626195 324.002943 324.002943 0 0 1-323.626196 323.626195z m0-571.902869a248.276674 248.276674 0 1 0 248.276674 248.276674A248.653422 248.653422 0 0 0 528.848153 75.349522z" fill="#F2706F" p-id="4162"></path><path d="M985.466255 1024H40.96l-5.274467-31.646799a220.397351 220.397351 0 0 1 0-70.075055c33.530537-212.862399 219.643856-350.752024 474.32524-350.752024 245.262693 0 422.334069 129.977925 473.948491 347.738043a200.429728 200.429728 0 0 1 3.767476 71.205298z m-875.184695-75.349522h804.356144c0-3.767476 0-7.9117-2.260485-11.679176-20.721118-87.028698-100.968359-289.718911-400.482708-289.718911-261.839588 0-376.747609 148.06181-400.105961 287.081678q-1.130243 7.534952-1.50699 14.316409z" fill="#F2706F" p-id="4163"></path></svg>