<?xml version="1.0" standalone="no"?><!DOCTYPE svg PUBLIC "-//W3C//DTD SVG 1.1//EN" "http://www.w3.org/Graphics/SVG/1.1/DTD/svg11.dtd"><svg t="1649446641408" class="icon" viewBox="0 0 1024 1024" version="1.1" xmlns="http://www.w3.org/2000/svg" p-id="7764" xmlns:xlink="http://www.w3.org/1999/xlink" width="24" height="24"><defs><style type="text/css">@font-face { font-family: feedback-iconfont; src: url("//at.alicdn.com/t/font_1031158_u69w8yhxdu.woff2?t=1630033759944") format("woff2"), url("//at.alicdn.com/t/font_1031158_u69w8yhxdu.woff?t=1630033759944") format("woff"), url("//at.alicdn.com/t/font_1031158_u69w8yhxdu.ttf?t=1630033759944") format("truetype"); }
</style></defs><path d="M635.465688 416.908381a23.629797 23.629797 0 0 1-0.827043 33.39678l-165.408577 157.531978a23.629797 23.629797 0 0 1-32.60912 0l-70.88939-67.502453a23.629797 23.629797 0 1 1 32.60912-34.223822L452.925508 558.096417l149.104018-141.975696a23.629797 23.629797 0 0 1 33.436162 0.78766z" fill="#119D78" p-id="7765"></path><path d="M930.050488 277.807644l-0.039383-0.78766c-0.472596-9.845749-0.748277-20.242859-0.945192-31.821459a108.539533 108.539533 0 0 0-102.159488-106.334086c-117.755154-6.537577-208.808637-44.896614-286.629435-120.787644l-0.669511-0.630128a65.533303 65.533303 0 0 0-89.044951 0L449.893017 18.116178c-77.820797 75.851648-168.874281 114.210684-286.629434 120.827027a108.50015 108.50015 0 0 0-102.159488 106.334086c-0.196915 11.460451-0.511979 21.896945-0.945192 31.782076l-0.039383 1.851001c-2.284214 120.039368-5.119789 269.458449 44.857231 405.093483 27.48933 74.552009 69.117156 139.415801 123.662603 192.661609 62.225132 60.689195 143.669164 108.854597 242.126651 143.196569a75.418435 75.418435 0 0 0 24.299307 4.135214 73.528051 73.528051 0 0 0 24.417457-4.135214c98.299955-34.381354 179.665221-82.58614 241.811587-143.275335 54.545448-53.324575 96.173273-118.148984 123.662603-192.740375 50.173935-136.028863 47.377743-285.723626 45.093529-405.999292zM495.065312 767.180735A255.477486 255.477486 0 0 1 239.863507 511.97893a255.477486 255.477486 0 0 1 255.201805-255.201805A255.477486 255.477486 0 0 1 750.267117 511.97893a255.477486 255.477486 0 0 1-255.201805 255.201805z" fill="#119D78" p-id="7766"></path></svg>