<?xml version="1.0" standalone="no"?><!DOCTYPE svg PUBLIC "-//W3C//DTD SVG 1.1//EN" "http://www.w3.org/Graphics/SVG/1.1/DTD/svg11.dtd"><svg t="1649446315576" class="icon" viewBox="0 0 1024 1024" version="1.1" xmlns="http://www.w3.org/2000/svg" p-id="2283" xmlns:xlink="http://www.w3.org/1999/xlink" width="24" height="24"><defs><style type="text/css">@font-face { font-family: feedback-iconfont; src: url("//at.alicdn.com/t/font_1031158_u69w8yhxdu.woff2?t=1630033759944") format("woff2"), url("//at.alicdn.com/t/font_1031158_u69w8yhxdu.woff?t=1630033759944") format("woff"), url("//at.alicdn.com/t/font_1031158_u69w8yhxdu.ttf?t=1630033759944") format("truetype"); }
</style></defs><path d="M977.408 880.896v62.912a41.152 41.152 0 0 1-30.016 33.28h-63.808c0.832-31.616-1.664-66.56 1.28-96.192h92.544z m-177.6 96.192h-89.984c0.768-31.616-1.728-66.56 1.28-96.192h88.768v96.192z m-544-268.8a54.976 54.976 0 0 1 57.6 75.264c-21.568 57.792-124.352 36.032-105.152-36.992 5.44-20.224 20.8-35.328 47.616-38.272z m721.6-126.976V684.8c-2.944 34.944-0.448 75.2-1.28 112.128h-266.304v-60.416c-25.024-2.88-55.424-0.384-82.56-1.216-2.88 78.08-0.384 161.536-1.28 241.664H577.28c-41.92-8.32-29.952-70.272-29.952-119.616v-191.104c0-28.736-5.952-71.808 1.216-94.976 8.512-27.52 45.504-23.424 82.496-23.424h181.312v163.968H896c0.832-54.208-1.664-111.744 1.28-163.968 40.32-2.24 77.696-1.664 80 33.408z m-850.368 50.56v265.088h268.864v-268.8h-267.52c-1.472 0.256-1.472 1.92-1.28 3.712z m318.912 345.216H77.056a41.472 41.472 0 0 1-30.016-29.568V576.384c3.648-10.88 12.032-23.552 24.96-27.136 24.512-6.784 64.512-1.28 93.824-1.28h191.36c28.16 0 69.376-6.144 94.976 1.28 34.624 10.048 24.96 72.704 24.96 117.12v196.032c0.128 48 10.56 110.4-31.168 114.688z m303.872-768.128c88.192-16.192 86.528 121.472 0 107.328-55.04-9.088-56.832-96.832 0-107.328z m-500.224 0c37.504-6.976 66.88 17.92 67.52 51.776 0.832 44.608-45.312 69.12-81.28 50.56-41.088-21.184-38.4-92.608 13.76-102.336z m377.664-77.696v265.088h268.928v-268.8H628.48c-1.472 0.256-1.344 1.984-1.28 3.712z m-51.2-83.84h372.608c15.168 5.568 25.6 15.808 28.736 33.28v362.56c-3.456 15.04-11.392 27.904-26.24 32-24.32 6.784-64.768 1.28-93.824 1.28h-191.36c-28.8 0-71.616 5.952-94.976-1.28-33.088-10.176-23.744-73.856-23.744-118.336V167.04c0-51.392-11.52-112.384 28.8-119.616z m-449.024 83.84v265.088h268.864v-268.8h-267.52c-1.472 0.256-1.472 1.984-1.28 3.712z m-51.2-83.84h372.672c37.824 3.712 28.736 69.504 28.736 112.256v203.456c0 44.16 8.384 98.368-21.312 110.912-19.264 8.128-71.232 2.432-96.256 2.432H162.048c-45.632 0-107.968 10.752-115.008-28.352V75.776a43.072 43.072 0 0 1 28.8-28.352z" fill="#13D068" p-id="2284"></path></svg>