<svg xml:space="preserve" viewBox="0 0 850.39 368.5" height="368.5px" width="850.39px" y="0px" x="0px" xmlns:xlink="http://www.w3.org/1999/xlink" xmlns="http://www.w3.org/2000/svg" id="图层_1" version="1.1">
<g>
	<g>
		<path d="M136.1,309.55c0.516-0.169,1.016-0.127,1.5,0.125
			c0.494,0.248,0.828,0.632,1,1.15c0.17,0.524,0.129,1.032-0.125,1.524c-0.255,0.494-0.646,0.827-1.175,1
			c-4.44,1.426-8.749,2.884-12.925,4.375c-0.518,0.188-1.026,0.162-1.525-0.074c-0.498-0.235-0.84-0.61-1.024-1.125
			c-0.188-0.518-0.162-1.026,0.075-1.525c0.234-0.498,0.609-0.84,1.125-1.025C127.249,312.467,131.607,310.991,136.1,309.55z
			 M104.35,323.075c-0.203-0.512-0.195-1.02,0.025-1.525c0.221-0.51,0.588-0.868,1.1-1.075c2.142-0.833,4.316-1.666,6.525-2.5
			c0.515-0.195,1.023-0.179,1.525,0.051c0.504,0.231,0.854,0.606,1.05,1.125c0.195,0.514,0.179,1.021-0.05,1.524
			c-0.233,0.504-0.608,0.854-1.125,1.05c-2.192,0.834-4.351,1.667-6.476,2.5c-0.511,0.195-1.019,0.179-1.524-0.05
			C104.897,323.953,104.548,323.587,104.35,323.075z M149.525,279.175c-0.388-0.394-0.579-0.869-0.575-1.425
			c-0.004-0.556,0.188-1.031,0.575-1.425c0.394-0.388,0.868-0.579,1.425-0.575c0.556-0.004,1.03,0.188,1.425,0.575l3.3,3.3
			c0.387,0.395,0.579,0.869,0.575,1.425c0.004,0.556-0.188,1.031-0.575,1.425c-0.394,0.387-0.869,0.579-1.425,0.575
			c-0.556,0.004-1.031-0.188-1.425-0.575L149.525,279.175z M143.9,275.625c0.394,0.385,0.594,0.851,0.6,1.4
			c0.005,0.551-0.188,1.025-0.575,1.425l-3.35,3.35c-0.385,0.394-0.852,0.594-1.4,0.601c-0.552,0.005-1.026-0.187-1.425-0.575
			c-0.395-0.385-0.594-0.851-0.6-1.4c-0.005-0.551,0.187-1.025,0.574-1.425l3.351-3.35c0.385-0.394,0.852-0.594,1.399-0.601
			C143.026,275.045,143.502,275.236,143.9,275.625z M143.3,268.1c0.004,0.557-0.188,1.031-0.575,1.426
			c-0.394,0.387-0.869,0.578-1.425,0.574c-0.556,0.004-1.031-0.188-1.425-0.574l-2.6-2.601c-0.388-0.394-0.579-0.869-0.575-1.425
			c-0.004-0.556,0.188-1.031,0.575-1.425c0.394-0.388,0.868-0.579,1.425-0.575c0.556-0.004,1.03,0.188,1.425,0.575l2.6,2.6
			C143.111,267.069,143.304,267.544,143.3,268.1z M152.8,264.7c0.551-0.014,1.026,0.169,1.425,0.55
			c0.402,0.383,0.611,0.85,0.625,1.4c0.014,0.55-0.17,1.024-0.55,1.425l-2.5,2.55c-0.384,0.401-0.851,0.609-1.399,0.625
			c-0.551,0.014-1.026-0.17-1.426-0.55c-0.402-0.384-0.61-0.851-0.625-1.4c-0.013-0.55,0.171-1.024,0.551-1.425l2.5-2.55
			C151.784,264.924,152.251,264.715,152.8,264.7z M206.05,320.725c0.531-0.151,1.039-0.094,1.525,0.176l4.55,2.55
			c0.481,0.271,0.798,0.671,0.95,1.2c0.151,0.532,0.094,1.041-0.175,1.524c-0.271,0.483-0.672,0.8-1.2,0.95
			c-0.531,0.152-1.039,0.094-1.525-0.175l-4.55-2.55c-0.481-0.271-0.798-0.672-0.95-1.2c-0.152-0.532-0.094-1.041,0.175-1.525
			C205.121,321.192,205.521,320.875,206.05,320.725z M211.875,311.55c0.359,0.419,0.518,0.902,0.475,1.45
			c-0.045,0.552-0.278,1.01-0.699,1.375l-3.45,3c-0.42,0.359-0.903,0.518-1.45,0.475c-0.553-0.044-1.011-0.277-1.375-0.699
			c-0.359-0.42-0.518-0.902-0.475-1.45c0.045-0.552,0.278-1.01,0.699-1.375l3.45-3c0.42-0.359,0.903-0.518,1.45-0.476
			C211.053,310.895,211.511,311.128,211.875,311.55z M199.2,320.275c0.529,0.15,0.93,0.467,1.2,0.949
			c0.269,0.485,0.327,0.994,0.175,1.525c-0.152,0.529-0.469,0.93-0.95,1.2l-5.25,2.85c-0.486,0.269-0.995,0.327-1.525,0.175
			c-0.529-0.15-0.93-0.467-1.199-0.949c-0.27-0.485-0.328-0.994-0.176-1.525c0.152-0.529,0.469-0.93,0.95-1.2l5.25-2.85
			C198.161,320.182,198.67,320.123,199.2,320.275z M198.575,315.25l-3.25-3.8c-0.359-0.43-0.518-0.922-0.476-1.476
			c0.055-0.545,0.296-0.995,0.726-1.35c0.421-0.36,0.903-0.519,1.45-0.475c0.545,0.046,0.994,0.279,1.35,0.699l3.25,3.801
			c0.359,0.43,0.518,0.921,0.475,1.475c-0.054,0.546-0.295,0.996-0.725,1.35c-0.421,0.36-0.904,0.52-1.45,0.476
			C199.38,315.904,198.93,315.671,198.575,315.25z M296.625,316.2l-2.5-6.55c-0.195-0.516-0.179-1.023,0.05-1.525
			c0.232-0.504,0.607-0.854,1.125-1.05c0.515-0.195,1.022-0.179,1.525,0.05c0.504,0.232,0.854,0.607,1.05,1.125l2.5,6.55
			c0.195,0.515,0.179,1.023-0.05,1.525c-0.232,0.504-0.607,0.854-1.125,1.05c-0.515,0.195-1.022,0.179-1.525-0.05
			C297.171,317.092,296.821,316.717,296.625,316.2z M281.025,315.725c-0.547-0.075-0.989-0.334-1.325-0.774
			c-0.33-0.439-0.455-0.932-0.375-1.476c0.077-0.547,0.335-0.988,0.774-1.324l7.9-6c0.441-0.33,0.933-0.455,1.475-0.375
			c0.547,0.075,0.989,0.334,1.325,0.774c0.33,0.439,0.455,0.932,0.375,1.476c-0.077,0.547-0.335,0.988-0.774,1.324l-7.9,6
			C282.059,315.68,281.567,315.805,281.025,315.725z M297.925,303.425c-0.229-0.503-0.245-1.011-0.05-1.524
			c0.197-0.518,0.547-0.893,1.05-1.125l6.351-2.95c0.503-0.229,1.012-0.245,1.524-0.05c0.519,0.195,0.894,0.546,1.125,1.05
			c0.229,0.503,0.245,1.011,0.05,1.524c-0.196,0.518-0.547,0.893-1.05,1.125l-6.35,2.95c-0.504,0.229-1.012,0.245-1.525,0.05
			C298.532,304.279,298.157,303.929,297.925,303.425z M289.25,301.825c-0.244,0.499-0.628,0.841-1.15,1.024
			c-0.518,0.179-1.026,0.145-1.524-0.1l-6.8-3.3c-0.499-0.245-0.841-0.628-1.025-1.15c-0.179-0.52-0.146-1.027,0.1-1.524
			c0.245-0.5,0.628-0.842,1.15-1.025c0.519-0.178,1.026-0.145,1.525,0.1l6.8,3.301c0.498,0.244,0.84,0.628,1.024,1.149
			C289.528,300.819,289.495,301.328,289.25,301.825z M293.55,289.35c0.556-0.003,1.031,0.188,1.425,0.575
			c0.387,0.395,0.579,0.869,0.575,1.425v4.95c0.004,0.556-0.188,1.031-0.575,1.425c-0.394,0.387-0.869,0.579-1.425,0.575
			c-0.556,0.004-1.031-0.188-1.425-0.575c-0.387-0.394-0.579-0.869-0.575-1.425v-4.95c-0.004-0.556,0.188-1.03,0.575-1.425
			C292.519,289.538,292.994,289.347,293.55,289.35z M274.775,246.025c-1.806-1.813-3.98-2.721-6.525-2.726
			c-2.529,0.003-4.729,0.911-6.6,2.726h0.024c-1.813,1.805-2.721,3.979-2.725,6.524c0.002,2.576,0.91,4.768,2.725,6.575h-0.024
			c1.87,1.814,4.07,2.723,6.6,2.725c2.545-0.004,4.72-0.912,6.525-2.725c1.814-1.808,2.723-3.999,2.725-6.575
			C277.496,250.005,276.587,247.83,274.775,246.025z M268.25,239.3c3.655-0.004,6.78,1.287,9.375,3.875
			c2.588,2.595,3.879,5.72,3.875,9.375c0.002,3.69-1.29,6.833-3.875,9.425c-2.595,2.588-5.72,3.88-9.375,3.875
			c-3.604,0.003-6.737-1.289-9.4-3.875h-0.024c-2.586-2.592-3.878-5.734-3.875-9.425c-0.005-3.655,1.287-6.78,3.875-9.375h0.024
			C261.513,240.59,264.646,239.298,268.25,239.3z M318.475,276.075c0.43,0.354,0.672,0.804,0.726,1.35
			c0.043,0.546-0.115,1.029-0.476,1.45c-0.353,0.429-0.803,0.671-1.35,0.725c-61.984,5.155-117.684,15.08-167.1,29.775
			c-0.528,0.152-1.037,0.094-1.525-0.175c-0.489-0.26-0.814-0.651-0.975-1.175c-0.153-0.529-0.095-1.037,0.175-1.525
			c0.259-0.488,0.65-0.813,1.175-0.975c49.651-14.771,105.618-24.746,167.9-29.926C317.57,275.557,318.053,275.715,318.475,276.075z
			 M254.875,183.625c-0.387-0.395-0.579-0.869-0.575-1.425c-0.004-0.556,0.188-1.031,0.575-1.425
			c0.394-0.388,0.869-0.579,1.425-0.575h6.8v-6.8c-0.003-0.557,0.188-1.031,0.575-1.426c0.395-0.387,0.869-0.578,1.425-0.574
			c0.557-0.004,1.031,0.188,1.426,0.574c0.387,0.395,0.578,0.869,0.574,1.426v6.8h6.801c0.556-0.004,1.03,0.188,1.425,0.575
			c0.387,0.394,0.578,0.869,0.575,1.425c0.003,0.556-0.188,1.03-0.575,1.425c-0.395,0.387-0.869,0.578-1.425,0.575H267.1v6.8
			c0.004,0.556-0.188,1.031-0.574,1.425c-0.395,0.387-0.869,0.579-1.426,0.575c-0.556,0.004-1.03-0.188-1.425-0.575
			c-0.387-0.394-0.578-0.869-0.575-1.425v-6.8h-6.8C255.744,184.203,255.269,184.012,254.875,183.625z M219.3,225.55
			c0.556-0.003,1.031,0.188,1.425,0.575c0.387,0.395,0.579,0.869,0.575,1.425v9h9c0.556-0.003,1.031,0.188,1.425,0.575
			c0.387,0.395,0.579,0.869,0.575,1.425c0.004,0.556-0.188,1.031-0.575,1.425c-0.394,0.387-0.869,0.579-1.425,0.575h-9v9
			c0.004,0.556-0.188,1.031-0.575,1.425c-0.394,0.387-0.869,0.579-1.425,0.575c-0.556,0.004-1.031-0.188-1.425-0.575
			c-0.387-0.394-0.579-0.869-0.575-1.425v-9h-9c-0.556,0.004-1.031-0.188-1.425-0.575c-0.387-0.394-0.579-0.869-0.575-1.425
			c-0.004-0.556,0.188-1.03,0.575-1.425c0.394-0.387,0.869-0.578,1.425-0.575h9v-9c-0.004-0.556,0.188-1.03,0.575-1.425
			C218.269,225.738,218.744,225.547,219.3,225.55z M248.025,109.925c0.387,0.395,0.578,0.869,0.574,1.425v1.351
			c0.004,0.556-0.188,1.03-0.574,1.425c-0.395,0.387-0.869,0.578-1.426,0.575c-0.556,0.003-1.03-0.188-1.425-0.575
			c-0.387-0.395-0.578-0.869-0.575-1.425v-1.351c-0.003-0.556,0.188-1.03,0.575-1.425c0.395-0.387,0.869-0.578,1.425-0.575
			C247.156,109.347,247.631,109.538,248.025,109.925z M252.4,89.375l0.024,0.025c1.655,1.622,2.48,3.571,2.476,5.85
			c-0.003,2.306-0.82,4.248-2.45,5.825c-0.024,0.025-0.05,0.051-0.075,0.075c-0.996,1.019-2.121,1.719-3.375,2.1l-0.025,0.025
			c-0.123,0.035-0.248,0.069-0.375,0.1v2.575c0.004,0.556-0.188,1.03-0.574,1.425c-0.395,0.387-0.869,0.578-1.426,0.575
			c-0.556,0.003-1.03-0.188-1.425-0.575c-0.387-0.395-0.578-0.869-0.575-1.425V101.6c-0.003-0.556,0.188-1.03,0.575-1.425
			c0.395-0.387,0.869-0.578,1.425-0.575c0.432,0,0.84-0.058,1.226-0.175L247.8,99.45c0.648-0.21,1.232-0.585,1.75-1.125
			c0.025-0.023,0.051-0.049,0.075-0.075c0.853-0.809,1.277-1.809,1.275-3c-0.006-1.177-0.439-2.186-1.301-3.025l-0.024-0.024
			c-0.812-0.833-1.804-1.25-2.976-1.25c-1.182,0.001-2.207,0.418-3.074,1.25l-0.025,0.024c-0.805,0.841-1.204,1.849-1.2,3.025
			c0,0.3,0,0.583,0,0.85c0.004,0.557-0.188,1.031-0.575,1.426c-0.394,0.387-0.869,0.578-1.425,0.574
			c-0.556,0.004-1.031-0.188-1.425-0.574c-0.387-0.395-0.579-0.869-0.575-1.426c0-0.267,0-0.55,0-0.85
			c0.005-2.278,0.796-4.229,2.375-5.85l0.025-0.025c1.66-1.618,3.627-2.426,5.899-2.425C248.883,86.949,250.816,87.758,252.4,89.375
			z M272.1,84.375h0.025c7.555,4.447,11.28,9.855,11.175,16.225c0.099,6.373-3.635,11.765-11.2,16.176
			c-0.543,0.315-1.093,0.623-1.649,0.925v10.05c0.003,0.505-0.164,0.946-0.5,1.325c-0.342,0.378-0.768,0.595-1.275,0.649
			c-0.503,0.061-0.962-0.057-1.375-0.35l-10.175-7.25c-5.198,0.618-8.757,0.926-10.675,0.925
			c-10.036,0.001-18.595-2.091-25.675-6.274h0.024c-7.565-4.411-11.299-9.803-11.2-16.176c-0.104-6.369,3.62-11.777,11.176-16.225
			h0.024c7.073-4.149,15.623-6.225,25.65-6.225S265.027,80.226,272.1,84.375z M270.075,87.825h0.024
			c-6.527-3.784-14.41-5.676-23.649-5.675c-9.239-0.001-17.123,1.891-23.65,5.675h0.025c-6.046,3.554-9.121,7.812-9.226,12.774
			c0.099,4.961,3.165,9.202,9.2,12.726h0.025c6.519,3.816,14.394,5.725,23.625,5.725c1.921-0.001,5.571-0.326,10.95-0.975
			c0.512-0.063,0.979,0.053,1.399,0.35l7.65,5.45V116.5c0.003-0.367,0.103-0.709,0.3-1.025c0.189-0.322,0.448-0.572,0.775-0.75
			c0.874-0.45,1.732-0.917,2.574-1.399c6.035-3.523,9.103-7.765,9.2-12.726C279.195,95.637,276.121,91.379,270.075,87.825z
			 M727.85,318.1c-0.236-0.498-0.262-1.007-0.074-1.524c0.185-0.516,0.526-0.891,1.024-1.125c0.5-0.236,1.009-0.262,1.525-0.075
			c4.726,1.675,9.268,3.383,13.625,5.125c0.514,0.208,0.88,0.566,1.1,1.075c0.212,0.507,0.212,1.016,0,1.524
			c-0.207,0.514-0.565,0.88-1.075,1.101c-0.508,0.211-1.016,0.211-1.524,0c-4.31-1.726-8.802-3.417-13.476-5.075
			C728.459,318.939,728.084,318.598,727.85,318.1z M687.675,302.575c0.476-0.276,0.976-0.344,1.5-0.2
			c4.75,1.3,9.467,2.65,14.15,4.05l0.024,0.025c1.834,0.566,3.667,1.133,5.5,1.7c3.909,1.232,7.717,2.467,11.426,3.699
			c0.52,0.174,0.902,0.508,1.149,1c0.253,0.495,0.295,1.003,0.125,1.525c-0.173,0.521-0.507,0.903-1,1.15
			c-0.494,0.252-1.003,0.294-1.524,0.125c-3.692-1.233-7.484-2.467-11.375-3.7c-1.834-0.567-3.667-1.134-5.5-1.7l0.024,0.025
			c-4.649-1.4-9.333-2.75-14.05-4.051c-0.529-0.15-0.929-0.467-1.2-0.949c-0.276-0.476-0.344-0.976-0.2-1.5
			C686.875,303.246,687.191,302.847,687.675,302.575z M574.05,308.825c0.005,0.551-0.187,1.025-0.575,1.425l-3.35,3.35
			c-0.385,0.394-0.852,0.594-1.4,0.601c-0.551,0.005-1.026-0.187-1.425-0.575c-0.394-0.385-0.595-0.851-0.6-1.4
			c-0.005-0.551,0.187-1.025,0.575-1.425l3.35-3.35c0.385-0.394,0.852-0.594,1.4-0.601c0.551-0.005,1.026,0.187,1.425,0.575
			C573.844,307.81,574.044,308.275,574.05,308.825z M578.5,309.55c-0.004-0.556,0.188-1.03,0.575-1.425
			c0.394-0.387,0.868-0.578,1.425-0.575c0.556-0.003,1.031,0.188,1.425,0.575l3.3,3.3c0.387,0.395,0.579,0.869,0.575,1.425
			c0.004,0.557-0.188,1.031-0.575,1.426c-0.394,0.387-0.869,0.578-1.425,0.574c-0.556,0.004-1.03-0.188-1.425-0.574l-3.3-3.301
			C578.688,310.581,578.496,310.105,578.5,309.55z M582.35,296.5c0.551-0.014,1.025,0.17,1.426,0.55
			c0.402,0.384,0.61,0.851,0.625,1.4c0.013,0.55-0.171,1.024-0.551,1.425l-2.5,2.55c-0.384,0.401-0.851,0.61-1.399,0.625
			c-0.551,0.014-1.026-0.169-1.425-0.55c-0.402-0.384-0.611-0.85-0.625-1.4c-0.014-0.55,0.17-1.024,0.55-1.425l2.5-2.55
			C581.334,296.724,581.801,296.516,582.35,296.5z M566.25,297.3c-0.004-0.556,0.188-1.03,0.575-1.425
			c0.394-0.387,0.868-0.578,1.425-0.575c0.556-0.003,1.031,0.188,1.425,0.575l2.601,2.6c0.387,0.395,0.578,0.869,0.574,1.426
			c0.004,0.556-0.188,1.03-0.574,1.425c-0.395,0.387-0.869,0.578-1.426,0.575c-0.556,0.003-1.031-0.188-1.425-0.575l-2.6-2.601
			C566.438,298.331,566.246,297.855,566.25,297.3z M540.75,278.325c0.055-0.556,0.297-1.015,0.725-1.375
			c0.423-0.353,0.906-0.502,1.45-0.45c50.285,4.717,96.36,12.608,138.226,23.675c0.535,0.142,0.943,0.449,1.225,0.925
			c0.277,0.482,0.344,0.99,0.2,1.525c-0.141,0.527-0.448,0.927-0.925,1.2c-0.475,0.276-0.975,0.343-1.5,0.2
			c-41.668-11.001-87.527-18.842-137.575-23.525c-0.556-0.055-1.015-0.297-1.375-0.725
			C540.848,279.353,540.697,278.869,540.75,278.325z M642.1,318.175c0.531-0.151,1.039-0.094,1.525,0.175l4.55,2.551
			c0.481,0.271,0.798,0.671,0.95,1.199c0.152,0.533,0.094,1.041-0.175,1.525c-0.271,0.482-0.671,0.8-1.2,0.95
			c-0.531,0.151-1.039,0.094-1.525-0.175l-4.55-2.551c-0.481-0.271-0.798-0.671-0.95-1.199c-0.152-0.533-0.094-1.041,0.176-1.525
			C641.171,318.643,641.57,318.325,642.1,318.175z M633.725,317.9c0.486-0.27,0.995-0.327,1.525-0.176
			c0.529,0.151,0.93,0.468,1.2,0.95c0.269,0.485,0.327,0.993,0.175,1.525c-0.152,0.529-0.469,0.929-0.95,1.2l-5.25,2.85
			c-0.486,0.269-0.995,0.327-1.524,0.175c-0.53-0.151-0.93-0.468-1.2-0.95c-0.269-0.484-0.327-0.993-0.175-1.524
			c0.152-0.529,0.469-0.93,0.949-1.2L633.725,317.9z M641.65,311.775l3.449-3c0.42-0.359,0.903-0.518,1.45-0.476
			c0.553,0.045,1.011,0.278,1.375,0.7c0.36,0.419,0.519,0.902,0.476,1.45c-0.046,0.552-0.279,1.01-0.7,1.375l-3.45,3
			c-0.42,0.358-0.903,0.517-1.45,0.475c-0.552-0.044-1.011-0.278-1.375-0.7c-0.359-0.419-0.518-0.902-0.475-1.449
			C640.995,312.599,641.229,312.141,641.65,311.775z M637.675,310.1c0.359,0.43,0.519,0.922,0.476,1.476
			c-0.055,0.546-0.296,0.995-0.726,1.35c-0.421,0.36-0.903,0.519-1.45,0.476c-0.545-0.047-0.994-0.279-1.35-0.7l-3.25-3.8
			c-0.359-0.43-0.518-0.922-0.475-1.476c0.053-0.546,0.295-0.995,0.725-1.35c0.421-0.36,0.904-0.519,1.45-0.476
			c0.545,0.047,0.995,0.279,1.35,0.7L637.675,310.1z M610,235.8c0.556-0.003,1.031,0.188,1.425,0.575
			c0.388,0.395,0.579,0.869,0.575,1.425v6.8h6.8c0.556-0.003,1.031,0.188,1.425,0.575c0.387,0.395,0.579,0.869,0.575,1.425
			c0.004,0.557-0.188,1.031-0.575,1.426c-0.394,0.387-0.869,0.578-1.425,0.574H612v6.801c0.004,0.556-0.188,1.03-0.575,1.425
			c-0.394,0.387-0.869,0.578-1.425,0.575c-0.557,0.003-1.031-0.188-1.425-0.575c-0.388-0.395-0.579-0.869-0.575-1.425V248.6h-6.8
			c-0.556,0.004-1.031-0.188-1.425-0.574c-0.388-0.395-0.579-0.869-0.575-1.426c-0.004-0.556,0.188-1.03,0.575-1.425
			c0.394-0.387,0.869-0.578,1.425-0.575h6.8v-6.8c-0.004-0.556,0.188-1.03,0.575-1.425C608.969,235.988,609.443,235.797,610,235.8z
			 M652.8,267.75c0.552,0.045,1.01,0.278,1.375,0.7l2.95,3.5c0.359,0.419,0.518,0.903,0.475,1.45
			c-0.045,0.552-0.277,1.011-0.699,1.375c-0.42,0.359-0.902,0.518-1.45,0.475c-0.552-0.045-1.011-0.278-1.375-0.7l-2.95-3.5
			c-0.359-0.419-0.518-0.903-0.475-1.45c0.045-0.552,0.277-1.011,0.699-1.375C651.77,267.865,652.252,267.707,652.8,267.75z
			 M652.85,254.725c0.547,0.106,0.98,0.39,1.301,0.851c0.314,0.448,0.423,0.94,0.324,1.475l-0.899,4.9
			c-0.106,0.546-0.39,0.979-0.851,1.3c-0.448,0.315-0.939,0.424-1.475,0.325c-0.547-0.106-0.98-0.39-1.3-0.851
			c-0.315-0.448-0.424-0.939-0.325-1.475l0.9-4.9c0.105-0.546,0.389-0.979,0.85-1.3C651.824,254.734,652.315,254.626,652.85,254.725
			z M658.275,261.9c0.528-0.135,1.028-0.06,1.5,0.225c0.478,0.284,0.785,0.692,0.925,1.225c0.135,0.538,0.06,1.047-0.226,1.525
			c-0.291,0.478-0.707,0.785-1.25,0.925l-3.149,0.851c-0.529,0.134-1.029,0.059-1.5-0.226c-0.479-0.283-0.786-0.692-0.925-1.225
			c-0.135-0.538-0.061-1.046,0.225-1.525c0.291-0.478,0.708-0.785,1.25-0.925L658.275,261.9z M642.225,270.875
			c0.077-0.547,0.336-0.988,0.775-1.325l3.75-2.75c0.44-0.329,0.932-0.454,1.475-0.375c0.547,0.076,0.989,0.335,1.325,0.775
			c0.33,0.439,0.455,0.931,0.375,1.475c-0.077,0.547-0.335,0.988-0.774,1.325l-3.75,2.75c-0.441,0.329-0.933,0.454-1.476,0.375
			c-0.547-0.076-0.989-0.334-1.325-0.775C642.27,271.91,642.145,271.419,642.225,270.875z M646.375,265.425l-5.2-4
			c-0.433-0.339-0.683-0.78-0.75-1.325c-0.071-0.545,0.063-1.037,0.4-1.475c0.337-0.434,0.779-0.684,1.325-0.75
			c0.545-0.07,1.036,0.063,1.475,0.4l5.2,4c0.433,0.338,0.683,0.78,0.75,1.324c0.071,0.546-0.063,1.037-0.4,1.476
			c-0.337,0.434-0.779,0.684-1.325,0.75C647.305,265.896,646.813,265.762,646.375,265.425z M616.55,197.525
			c2.663-2.586,5.796-3.878,9.4-3.875c3.655-0.005,6.78,1.287,9.375,3.875c2.587,2.595,3.879,5.72,3.875,9.375
			c0.002,3.69-1.29,6.832-3.875,9.425c-2.595,2.587-5.72,3.879-9.375,3.875c-3.604,0.002-6.737-1.29-9.4-3.875h-0.024
			c-2.586-2.593-3.877-5.734-3.875-9.425c-0.005-3.655,1.287-6.78,3.875-9.375H616.55z M625.95,197.65
			c-2.53,0.002-4.729,0.91-6.601,2.725h0.025c-1.813,1.805-2.721,3.98-2.725,6.525c0.002,2.576,0.91,4.768,2.725,6.574h-0.025
			c1.871,1.814,4.07,2.723,6.601,2.726c2.544-0.005,4.72-0.913,6.524-2.726c1.814-1.807,2.723-3.998,2.726-6.574
			c-0.005-2.545-0.913-4.721-2.726-6.525C630.67,198.563,628.494,197.654,625.95,197.65z M567.95,228.725h0.024
			c-0.813,0.807-1.221,1.781-1.225,2.926c0.004,1.144,0.412,2.118,1.225,2.925h-0.024c0.837,0.813,1.82,1.222,2.95,1.225
			c1.144-0.003,2.118-0.411,2.925-1.225c0.813-0.807,1.222-1.781,1.225-2.925c-0.003-1.145-0.411-2.119-1.225-2.926
			c-0.807-0.813-1.781-1.222-2.925-1.225C569.771,227.503,568.787,227.911,567.95,228.725z M565.125,225.875h0.025
			c1.629-1.587,3.546-2.378,5.75-2.375c2.256-0.003,4.181,0.788,5.774,2.375c1.587,1.594,2.378,3.519,2.375,5.775
			c0.003,2.256-0.788,4.181-2.375,5.774c-1.594,1.587-3.519,2.378-5.774,2.375c-2.204,0.003-4.121-0.788-5.75-2.375h-0.025
			c-1.587-1.594-2.379-3.519-2.375-5.774C562.746,229.394,563.538,227.469,565.125,225.875z M583.85,180.1
			c-0.004-0.556,0.188-1.03,0.575-1.425c0.394-0.387,0.869-0.578,1.425-0.575c0.557-0.003,1.031,0.188,1.426,0.575
			c0.387,0.395,0.578,0.869,0.574,1.425v6.801h6.801c0.556-0.004,1.03,0.188,1.425,0.574c0.387,0.395,0.578,0.869,0.575,1.426
			c0.003,0.556-0.188,1.03-0.575,1.425c-0.395,0.387-0.869,0.578-1.425,0.575h-6.801v6.8c0.004,0.556-0.188,1.03-0.574,1.425
			c-0.395,0.387-0.869,0.578-1.426,0.575c-0.556,0.003-1.031-0.188-1.425-0.575c-0.387-0.395-0.579-0.869-0.575-1.425v-6.8h-6.8
			c-0.556,0.003-1.03-0.188-1.425-0.575c-0.387-0.395-0.578-0.869-0.575-1.425c-0.003-0.557,0.188-1.031,0.575-1.426
			c0.395-0.387,0.869-0.578,1.425-0.574h6.8V180.1z M575.35,126.3c0.207-0.798,0.665-1.406,1.375-1.825
			c0.717-0.423,1.476-0.531,2.275-0.324c0.797,0.205,1.406,0.664,1.825,1.375c0.423,0.717,0.53,1.476,0.325,2.274l-1.301,4.95
			c-0.206,0.799-0.664,1.406-1.375,1.825c-0.717,0.423-1.475,0.531-2.274,0.325c-0.798-0.206-1.406-0.664-1.825-1.375
			c-0.423-0.718-0.531-1.477-0.325-2.275L575.35,126.3z M530.225,44.6c0.544,0.638,0.785,1.371,0.726,2.2l-1.55,19.55
			c-0.068,0.817-0.418,1.492-1.051,2.025c-0.638,0.544-1.371,0.786-2.199,0.725c-0.818-0.067-1.493-0.417-2.025-1.05
			c-0.543-0.637-0.785-1.37-0.725-2.2l1.55-19.55c0.067-0.816,0.418-1.491,1.05-2.024c0.639-0.544,1.371-0.786,2.2-0.726
			C529.018,43.617,529.692,43.968,530.225,44.6z M562.975,60.8c0.626-0.549,1.352-0.799,2.176-0.75
			c0.82,0.057,1.504,0.398,2.05,1.025c0.55,0.624,0.8,1.35,0.75,2.175c-0.058,0.819-0.399,1.503-1.025,2.05l-15.85,14.05
			c-0.626,0.55-1.351,0.8-2.175,0.75c-0.821-0.057-1.505-0.397-2.051-1.024c-0.551-0.625-0.801-1.35-0.75-2.175
			c0.059-0.82,0.4-1.503,1.025-2.051L562.975,60.8z M554.775,42c0.724,0.406,1.199,1.007,1.425,1.8
			c0.216,0.792,0.115,1.551-0.3,2.275l-13.851,24.6c-0.407,0.722-1.007,1.197-1.8,1.425c-0.795,0.216-1.553,0.116-2.275-0.3
			c-0.716-0.406-1.182-1.006-1.399-1.8c-0.224-0.792-0.132-1.551,0.274-2.275l13.851-24.6c0.406-0.714,1.007-1.18,1.8-1.4
			C553.295,41.501,554.053,41.593,554.775,42z M587.975,90.75c0.799,0.215,1.407,0.682,1.825,1.4c0.415,0.717,0.515,1.475,0.3,2.274
			l-6,22.4c-0.215,0.797-0.682,1.405-1.399,1.825c-0.718,0.415-1.477,0.515-2.275,0.3c-0.798-0.215-1.407-0.682-1.825-1.4
			c-0.415-0.717-0.515-1.475-0.3-2.274l6-22.4c0.216-0.797,0.683-1.405,1.4-1.825C586.418,90.635,587.177,90.535,587.975,90.75z" fill="#9BA8D5" clip-rule="evenodd" fill-rule="evenodd"></path>
	</g>
	<g>
		<g>
			<linearGradient y2="88.7505" x2="425.2075" y1="309.4004" x1="425.2075" gradientUnits="userSpaceOnUse" id="SVGID_1_">
				<stop style="stop-color:#478CCB" offset="0"></stop>
				<stop style="stop-color:#6AABDE" offset="1"></stop>
			</linearGradient>
			<path d="M364.5,117.25c-7.438,0.002-13.797,2.644-19.075,7.925
				c-5.281,5.278-7.923,11.637-7.925,19.075V276.4c0.002,2.248,0.261,4.406,0.775,6.475c0.031,0.128,0.056,0.253,0.074,0.375
				c1.148,4.577,3.507,8.652,7.075,12.225c5.278,5.281,11.637,7.923,19.075,7.926h146c7.438-0.003,13.797-2.645,19.075-7.926
				c5.28-5.278,7.923-11.637,7.925-19.074V144.25c0.006-6.774-2.177-12.649-6.55-17.625c-0.429-0.483-0.887-0.967-1.375-1.45
				c-5.278-5.281-11.638-7.923-19.075-7.925H364.5z M504.975,102.675c-5.278-5.281-11.637-7.923-19.074-7.925h-146
				c-7.438,0.002-13.797,2.644-19.075,7.925c-5.281,5.278-7.923,11.637-7.925,19.075V253.9c0.002,7.438,2.644,13.796,7.925,19.074
				c3.213,3.214,6.821,5.455,10.825,6.726c-0.102-1.086-0.151-2.186-0.15-3.3v-13.9c0-0.024,0-0.05,0-0.075V144.25
				c-0.002-9.096,3.223-16.87,9.675-23.325c6.455-6.452,14.229-9.677,23.325-9.675h146c0.129,0,0.254,0,0.375,0
				C509.543,108.128,507.576,105.27,504.975,102.675z M533.825,120.925c0.577,0.584,1.12,1.167,1.625,1.75
				c5.36,6.092,8.044,13.283,8.05,21.575v105.575c0.02,0.188,0.02,0.38,0,0.575v26c0.002,9.095-3.223,16.87-9.675,23.324
				c-6.455,6.453-14.229,9.678-23.325,9.676h-146c-9.096,0.002-16.87-3.223-23.325-9.676c-3.989-3.985-6.739-8.485-8.25-13.5
				c-6.159-1.259-11.608-4.259-16.35-9c-6.452-6.454-9.678-14.229-9.675-23.324V121.75c-0.003-9.096,3.223-16.87,9.675-23.325
				c6.454-6.452,14.229-9.677,23.325-9.675h146c9.095-0.002,16.87,3.223,23.324,9.675c3.983,3.991,6.742,8.5,8.275,13.525
				C523.653,113.205,529.096,116.197,533.825,120.925z" fill="url(#SVGID_1_)" clip-rule="evenodd" fill-rule="evenodd"></path>
			<linearGradient y2="88.7766" x2="386.4004" y1="309.4238" x1="386.4004" gradientUnits="userSpaceOnUse" id="SVGID_2_">
				<stop style="stop-color:#478CCB;stop-opacity:0.702" offset="0"></stop>
				<stop style="stop-color:#6AABDE;stop-opacity:0.702" offset="1"></stop>
			</linearGradient>
			<path d="M395.725,166.65c-2.552-2.573-5.66-3.856-9.324-3.851
				c-3.67,0-6.795,1.292-9.375,3.875v-0.024c-2.584,2.616-3.875,5.75-3.875,9.399c-0.001,3.669,1.291,6.794,3.875,9.375
				c2.58,2.584,5.705,3.875,9.375,3.875c3.664,0.007,6.772-1.276,9.324-3.85l0.025-0.025c2.604-2.582,3.903-5.707,3.9-9.375
				c-0.006-3.641-1.313-6.766-3.926-9.375V166.65z M399.975,162.425c3.789,3.791,5.681,8.333,5.676,13.625
				c-0.004,5.32-1.896,9.854-5.676,13.601l-0.024,0.024c-3.71,3.744-8.228,5.619-13.55,5.625c-5.332,0-9.873-1.875-13.625-5.625
				c-3.75-3.752-5.625-8.294-5.625-13.625c0-5.283,1.875-9.816,5.625-13.6v-0.025c3.752-3.75,8.293-5.625,13.625-5.625
				c5.335,0.007,9.859,1.89,13.574,5.65V162.425z" fill="url(#SVGID_2_)" clip-rule="evenodd" fill-rule="evenodd"></path>
		</g>
		<g>
			<linearGradient y2="88.7761" x2="437.2451" y1="309.4248" x1="437.2451" gradientUnits="userSpaceOnUse" id="SVGID_3_">
				<stop style="stop-color:#478CCB;stop-opacity:0.702" offset="0"></stop>
				<stop style="stop-color:#6AABDE;stop-opacity:0.702" offset="1"></stop>
			</linearGradient>
			<path d="M479.65,171.95h0.05
				c11.2-0.233,21.783,5.566,31.75,17.399c5.633,6.601,11.3,15.467,17,26.601c-0.089,4.429-1.681,5.72-4.775,3.875
				c-5.67-11.162-11.278-20.037-16.825-26.625c-8.566-10.167-17.6-15.25-27.1-15.25c-11.8,0.233-22.717,6.533-32.75,18.899
				c-9.967,12.301-20.367,32.051-31.2,59.25c-0.267,0.634-0.717,1.134-1.35,1.5c-0.634,0.334-1.3,0.434-2,0.301
				c-0.733-0.134-1.317-0.483-1.75-1.051c-11.467-14.133-23.283-20.683-35.45-19.649c-8.063,0.87-16.313,4.986-24.75,12.35
				c-1.795,0.178-3.062-0.164-3.8-1.024c-0.063-0.07-0.12-0.146-0.175-0.226c-0.701-1.02-0.643-2.187,0.175-3.5
				c9.5-8.3,18.816-12.833,27.95-13.6c12.899-1.4,25.383,4.616,37.449,18.05c10.467-25.533,20.551-44.267,30.25-56.2
				C453.75,179.017,466.184,171.983,479.65,171.95z" fill="url(#SVGID_3_)" clip-rule="evenodd" fill-rule="evenodd"></path>
		</g>
	</g>
</g>
</svg>
