<?xml version="1.0" standalone="no"?><!DOCTYPE svg PUBLIC "-//W3C//DTD SVG 1.1//EN" "http://www.w3.org/Graphics/SVG/1.1/DTD/svg11.dtd"><svg t="1649446596637" class="icon" viewBox="0 0 1228 1024" version="1.1" xmlns="http://www.w3.org/2000/svg" p-id="6801" xmlns:xlink="http://www.w3.org/1999/xlink" width="28.78125" height="24"><defs><style type="text/css">@font-face { font-family: feedback-iconfont; src: url("//at.alicdn.com/t/font_1031158_u69w8yhxdu.woff2?t=1630033759944") format("woff2"), url("//at.alicdn.com/t/font_1031158_u69w8yhxdu.woff?t=1630033759944") format("woff"), url("//at.alicdn.com/t/font_1031158_u69w8yhxdu.ttf?t=1630033759944") format("truetype"); }
</style></defs><path d="M1097.023759 0.009898a130.181973 130.181973 0 0 1 131.410748 120.488298l0.341327 7.509185v767.984896a129.704116 129.704116 0 0 1-123.901563 127.792687l-7.850512 0.204796H131.410749A130.14784 130.14784 0 0 1 0 903.501463V128.007381A129.704116 129.704116 0 0 1 123.901563 0.248827L131.410749 0.009898h965.61301z m0 85.331656H131.410749a43.143685 43.143685 0 0 0-43.348481 37.545928l-0.341327 4.983369v767.984896a43.177818 43.177818 0 0 0 38.569909 42.392766l5.119899 0.273061h965.61301a43.72394 43.72394 0 0 0 43.689807-37.545928l0.341327-5.017501v-767.984896a43.177818 43.177818 0 0 0-38.911235-42.358634zM1009.302817 682.66314a42.665828 42.665828 0 1 1 0 85.331655H219.473017a42.69996 42.69996 0 1 1 0-85.331655h789.8298zM482.635841 213.373169a86.492166 86.492166 0 0 1 87.379615 78.914715l0.341327 6.382807V511.999829a86.184972 86.184972 0 0 1-81.235736 85.12686l-6.485206 0.238928H263.162824a86.765227 86.765227 0 0 1-87.379614-78.948847L175.441883 511.999829V298.670691a86.4239 86.4239 0 0 1 81.235736-85.092726l6.485205-0.204796h219.473017z m526.666976 255.994965a42.665828 42.665828 0 1 1 0 85.331656h-307.193958a42.69996 42.69996 0 1 1 0-85.331656h307.193958z m-526.666976-170.66331H263.162824V511.999829h219.473017V298.670691z m526.666976-42.631695a42.665828 42.665828 0 1 1 0 85.331655h-307.193958a42.665828 42.665828 0 1 1 0-85.331655h307.193958z" fill="#1890FF" p-id="6802"></path></svg>